<svg xmlns="http://www.w3.org/2000/svg" viewBox="0 0 256 256" role="img" aria-label="Bake &amp; Brew logo">
  <defs>
    <linearGradient id="g" x1="0" y1="0" x2="1" y2="1">
      <stop offset="0" stop-color="#8f70ed"/>
      <stop offset="1" stop-color="#633fcc"/>
    </linearGradient>
  </defs>
  <rect width="256" height="256" rx="60" fill="url(#g)"/>
  <circle cx="128" cy="128" r="104" fill="none" stroke="#fff" stroke-opacity="0.16" stroke-width="4"/>
  <g>
    <path d="M70 118h98v34c0 30-22 50-49 50s-49-20-49-50z" fill="#ffffff"/>
    <path d="M168 130h8a24 24 0 0 1 0 48h-14" stroke="#ffffff" stroke-width="12" fill="none" stroke-linecap="round"/>
    <path d="M58 214h122" stroke="#ffffff" stroke-width="12" stroke-linecap="round"/>
    <path d="M96 100c-8-10 8-16 0-28m26 28c-8-10 8-16 0-28m26 28c-8-10 8-16 0-28" stroke="#ffd43b" stroke-width="7" fill="none" stroke-linecap="round"/>
  </g>
</svg>
