<svg xmlns="http://www.w3.org/2000/svg" viewBox="0 0 256 256" role="img" aria-label="Dosa Corner logo">
  <defs>
    <linearGradient id="g" x1="0" y1="0" x2="1" y2="1">
      <stop offset="0" stop-color="#4191a0"/>
      <stop offset="1" stop-color="#0a6475"/>
    </linearGradient>
  </defs>
  <rect width="256" height="256" rx="60" fill="url(#g)"/>
  <circle cx="128" cy="128" r="104" fill="none" stroke="#fff" stroke-opacity="0.16" stroke-width="4"/>
  <g>
    <ellipse cx="128" cy="196" rx="92" ry="14" fill="rgba(255,255,255,.32)"/>
    <path d="M50 180C56 100 118 68 202 82c18 4 16 22-2 28-52 12-100 42-122 82-10 14-30 6-28-12z" fill="#ffffff"/>
    <path d="M92 150c22-30 56-46 96-52M74 176c20-24 44-40 74-52" stroke="rgba(0,0,0,.14)" stroke-width="6" fill="none" stroke-linecap="round"/>
    <circle cx="196" cy="172" r="24" fill="#ffd43b"/>
    <circle cx="196" cy="172" r="12" fill="#ff922b"/>
  </g>
</svg>
