<svg xmlns="http://www.w3.org/2000/svg" viewBox="0 0 256 256" role="img" aria-label="Sandwich Stop logo">
  <defs>
    <linearGradient id="g" x1="0" y1="0" x2="1" y2="1">
      <stop offset="0" stop-color="#8099fb"/>
      <stop offset="1" stop-color="#516ddc"/>
    </linearGradient>
  </defs>
  <rect width="256" height="256" rx="60" fill="url(#g)"/>
  <circle cx="128" cy="128" r="104" fill="none" stroke="#fff" stroke-opacity="0.16" stroke-width="4"/>
  <g>
    <path d="M62 142a66 50 0 0 1 132 0z" fill="#ffffff"/>
    <path d="M60 148h136l-6 12h-124z" fill="#ffd43b"/>
    <path d="M62 164q12-12 22 0t22 0 22 0 22 0 22 0 14-4v12H62z" fill="#8ce99a"/>
    <path d="M62 182h132a10 10 0 0 1 10 10v2a14 14 0 0 1-14 14H66a14 14 0 0 1-14-14v-2a10 10 0 0 1 10-10z" fill="#ffffff"/>
  </g>
</svg>
